<?xml version="1.0" encoding="UTF-8"?>
<svg version="1.1" xmlns="http://www.w3.org/2000/svg" width="2500" height="1465">
<path d="M0 0 C0.81833817 -0.00571014 1.63667633 -0.01142029 2.47981262 -0.01730347 C3.37432632 -0.01842133 4.26884003 -0.01953918 5.19046021 -0.02069092 C6.13561996 -0.02565582 7.08077972 -0.03062073 8.05458069 -0.03573608 C11.18988775 -0.05036962 14.32514409 -0.05716456 17.46047974 -0.06268311 C19.64465333 -0.06843713 21.82882691 -0.07419483 24.01300049 -0.07995605 C28.60129023 -0.09047186 33.18956244 -0.09630957 37.77786255 -0.09979248 C43.62935444 -0.10525389 49.4806109 -0.1292289 55.33202934 -0.15776443 C59.84992116 -0.17648919 64.36775764 -0.18160181 68.88568497 -0.18312836 C71.0408366 -0.18613734 73.19598766 -0.19410586 75.35110092 -0.20731354 C106.08127702 -0.38207506 106.08127702 -0.38207506 115.96829224 9.14044189 C116.48649536 9.59677002 117.00469849 10.05309814 117.53860474 10.52325439 C125.2046381 18.18928776 128.64328429 30.35670249 131.51907349 40.55841064 C131.76647781 41.43137283 132.01388214 42.30433502 132.26878357 43.20375061 C136.8046487 59.48939151 140.78872683 75.93025728 144.90217209 92.32621765 C146.97336029 100.57591194 149.05345286 108.82336952 151.13279915 117.07101059 C151.65935602 119.15957932 152.18580808 121.24817448 152.7121563 123.33679581 C155.97177654 136.26971989 159.24912987 149.19773049 162.57766724 162.11309814 C162.75671412 162.80786947 162.93576099 163.5026408 163.12023354 164.21846581 C164.01977086 167.70797122 164.92006615 171.19728063 165.82073975 174.68649292 C175.19601968 211.00745065 184.35142855 247.38333356 193.50179625 283.76143456 C201.83637437 316.89620629 210.17466501 350.02898045 218.7270813 383.10835648 C224.91651711 407.05254128 230.97762971 431.02868554 237.01516724 455.01153564 C237.21772786 455.81615124 237.42028849 456.62076684 237.62898731 457.44976473 C241.97948583 474.73189333 246.32501987 492.01526866 250.66679764 509.29959011 C252.04019759 514.76689349 253.41424413 520.23403432 254.7884233 525.70114189 C255.89253403 530.09416795 256.99557487 534.48746079 258.09775424 538.88097179 C258.61489452 540.94170625 259.13253944 543.00231317 259.65040207 545.06286621 C260.27499839 547.54817086 260.89881044 550.03367282 261.52162552 552.51942444 C263.25653469 559.41627653 265.06745209 566.28742764 266.96829224 573.14044189 C268.98355711 569.32492691 269.97682015 565.47401513 270.94509888 561.29180908 C271.13304205 560.49818718 271.32098522 559.70456528 271.51462364 558.88689423 C272.14063864 556.23812804 272.75952199 553.58774761 273.37844849 550.93731689 C273.82153576 549.05633349 274.26507272 547.17545596 274.70903015 545.29467773 C275.90574908 540.21952293 277.09639282 535.14296021 278.28598785 530.06613159 C279.5356513 524.73782873 280.79101028 519.4108684 282.04592896 514.08380127 C284.07456393 505.46982607 286.10032737 496.85518086 288.12405396 488.24005127 C290.57583336 477.8039057 293.03630464 467.36984001 295.50344849 456.93731689 C295.85133917 455.46605439 296.19922939 453.99479178 296.54711914 452.52352905 C297.0581412 450.36243263 297.56917472 448.20133893 298.08024788 446.04025459 C307.8475592 404.73580515 317.55485153 363.41717247 327.27201843 322.10090637 C349.12047222 229.20415944 349.12047222 229.20415944 357.42141724 194.01153564 C357.64039736 193.08313181 357.85937748 192.15472797 358.08499336 191.19819069 C360.45817997 181.13723345 362.83298317 171.07665992 365.2102356 161.0166626 C366.06067262 157.41731985 366.9110035 153.81795205 367.76126099 150.21856689 C367.97126677 149.32961416 368.18127254 148.44066143 368.39764214 147.52477074 C371.37956423 134.89979639 374.34590945 122.27123631 377.30223083 109.64024353 C378.98911192 102.43317867 380.67981002 95.22701069 382.37132168 88.02103138 C383.7455206 82.1652289 385.11468782 76.30828116 386.47994518 70.45038795 C387.32507144 66.8298809 388.1751618 63.21055225 389.02655602 59.59151459 C389.41628908 57.93039948 389.8040236 56.26881381 390.18946266 54.60669708 C399.24963593 15.55783999 399.24963593 15.55783999 409.99172974 7.34747314 C419.1425314 1.75933537 429.48542224 -0.16736703 440.06130981 -0.13421631 C441.35109993 -0.14188271 441.35109993 -0.14188271 442.66694641 -0.14970398 C445.4823115 -0.16349416 448.29742883 -0.16265101 451.11282349 -0.16033936 C453.08903594 -0.16423249 455.06524757 -0.16856842 457.04145813 -0.17332458 C461.17440508 -0.1807644 465.30726658 -0.18051209 469.44021606 -0.17523193 C474.70874644 -0.16944468 479.97692442 -0.18636137 485.24539661 -0.20957661 C489.32489531 -0.22438578 493.40431058 -0.22517584 497.48383141 -0.22206688 C499.42488998 -0.22257663 501.36595365 -0.22774852 503.30698586 -0.2378788 C532.97290945 -0.37370642 532.97290945 -0.37370642 543.86672974 9.93731689 C553.264679 20.85371211 556.28249073 36.18587668 559.44485474 49.86700439 C559.85086839 51.58398193 560.25791164 53.30071626 560.66589355 55.01722717 C561.75995497 59.63297427 562.83978767 64.25194165 563.91696167 68.87165451 C565.06620094 73.78885665 566.22895368 78.70286315 567.39016724 83.61724854 C569.5580507 92.80056555 571.71454534 101.98651365 573.86636734 111.17360592 C576.04777714 120.48503219 578.24064167 129.7937377 580.43613243 139.10185242 C583.7321813 153.0765032 587.02071264 167.05290331 590.30254555 181.03089905 C593.95491667 196.58693621 597.61791343 212.14042081 601.29251099 227.69122314 C601.74024147 229.58619134 602.18796995 231.48116001 602.63569641 233.37612915 C603.30686778 236.21673098 603.97804689 239.05733098 604.64923763 241.89792824 C612.00941733 273.04784876 619.32624028 304.20713513 626.56658173 335.38513184 C631.12846718 355.02749826 635.7388809 374.65627001 640.47338867 394.25790405 C645.37891811 414.57532562 650.16695985 434.91989194 654.94753265 455.26699066 C656.87969303 463.4905598 658.8125994 471.71395368 660.74563599 479.93731689 C661.06721302 481.30538546 661.06721302 481.30538546 661.39528656 482.70109177 C665.90167858 501.87080958 670.42313539 521.03695041 674.95748901 540.20007324 C675.75343158 543.56397327 676.54869848 546.92803186 677.34335327 550.29223633 C678.26851203 554.20876139 679.19500437 558.12496842 680.12260246 562.04091644 C680.46143218 563.47222841 680.79980715 564.90364811 681.13769722 566.33518219 C681.59711663 568.28115165 682.05840939 570.22667855 682.51980591 572.17218018 C682.77702927 573.25927277 683.03425262 574.34636536 683.29927063 575.46640015 C683.95093336 578.21589379 683.95093336 578.21589379 684.96829224 581.14044189 C685.24738937 580.05497574 685.52648651 578.96950958 685.81404114 577.85115051 C709.5647312 485.48354204 709.5647312 485.48354204 721.53079224 439.39044189 C729.12183943 410.14777526 736.68095153 380.89699834 744.21829224 351.64044189 C744.47915367 350.62793365 744.74001511 349.61542542 745.00878143 348.57223511 C748.1953824 336.20362999 751.38117417 323.83481652 754.56661224 311.46591187 C778.27430342 219.41023226 778.27430342 219.41023226 787.69094849 182.99981689 C788.03769906 181.65906507 788.03769906 181.65906507 788.3914547 180.29122734 C790.8934619 170.6178682 793.39797031 160.94516194 795.90652466 151.27349854 C796.79698821 147.83984484 797.68735348 144.40616568 798.57766724 140.97247314 C798.79701746 140.12661715 799.01636768 139.28076115 799.24236488 138.40927315 C802.29080344 126.65120252 805.31857366 114.88797383 808.33151245 103.12075806 C810.01235313 96.55665413 811.6990213 89.99405162 813.38707352 83.43179893 C814.74903233 78.1351572 816.10353935 72.8366879 817.45217514 67.53663921 C818.28621178 64.2668468 819.12771282 60.99900804 819.97118378 57.73163795 C820.35530957 56.23752651 820.73646193 54.74264637 821.11414337 53.24689293 C823.06318218 45.5345123 825.24714232 37.99916094 828.02493286 30.5401001 C828.26466576 29.89570323 828.50439865 29.25130636 828.75139618 28.58738232 C833.29459612 16.76779804 838.56837291 8.30040578 850.33157349 3.03497314 C857.36748887 0.6479737 864.10747875 -0.15615679 871.50784302 -0.13421631 C872.41474884 -0.13932724 873.32165466 -0.14443817 874.25604248 -0.14970398 C877.22529878 -0.1634965 880.19432041 -0.16265171 883.16360474 -0.16033936 C885.24147629 -0.16423063 887.31934705 -0.16856618 889.3972168 -0.17332458 C893.73945706 -0.18076354 898.08161597 -0.18051142 902.42385864 -0.17523193 C907.97985073 -0.16942598 913.53551067 -0.18640687 919.09144783 -0.20957661 C923.37748145 -0.22432362 927.6634351 -0.22518456 931.94948959 -0.22206688 C933.99795059 -0.22257913 936.04641618 -0.22779868 938.09485245 -0.2378788 C940.95929743 -0.25025104 943.82309546 -0.24344781 946.68753052 -0.23187256 C947.5271936 -0.2395163 948.36685669 -0.24716003 949.23196411 -0.2550354 C955.27879452 -0.20117909 960.22788508 0.7384914 964.92922974 4.85919189 C965.39587036 5.44700439 965.86251099 6.03481689 966.34329224 6.64044189 C966.82540161 7.22825439 967.30751099 7.81606689 967.80422974 8.42169189 C972.14242988 14.82708808 970.51677496 25.54262012 969.39675903 32.88946533 C969.12493499 34.19983039 968.83930509 35.50738082 968.54251099 36.81231689 C968.3729187 37.56342239 968.20332642 38.31452789 968.02859497 39.08839417 C965.11350919 51.33438946 961.01453129 63.2752494 957.14126587 75.24427414 C955.99639125 78.7890465 954.86126852 82.33693485 953.72610474 85.88482666 C953.49985916 86.5918872 953.27361359 87.29894773 953.04051208 88.02743435 C952.58598916 89.44800563 952.13150595 90.86858962 951.67706299 92.28918648 C951.00263481 94.3964043 950.32724585 96.5033121 949.65164185 98.6101532 C946.35023034 108.9105508 943.1224645 119.23151896 939.96829224 129.57794189 C935.12444346 145.43867044 930.18782162 161.26979263 925.23324966 177.09621811 C917.94263812 200.38470712 910.69362944 223.68565445 903.481987 246.99871826 C896.53194116 269.4658472 889.54096904 291.91875252 882.45623779 314.34387207 C876.22074068 334.08702207 870.08545048 353.86040121 863.96829224 373.64044189 C857.43648905 394.7611036 850.87482643 415.87116892 844.21829224 436.95294189 C838.58614002 454.79217185 833.00338467 472.64585337 827.46829224 490.51544189 C819.5097158 516.20724288 811.49578477 541.88149612 803.4666872 567.55133629 C802.13503803 571.80885492 800.80356186 576.06642763 799.47219849 580.32403564 C799.20681715 581.17268566 798.94143581 582.02133568 798.66801262 582.89570236 C794.79624977 595.27837072 790.93480228 607.66422045 787.08109283 620.05251884 C786.25124479 622.72006863 785.42117462 625.3875492 784.59103394 628.05500793 C784.04702298 629.80312967 783.50301659 631.55125283 782.95901489 633.29937744 C782.55977688 634.58230415 782.55977688 634.58230415 782.15247345 635.89114857 C780.85003649 640.07700438 779.54834415 644.26308914 778.2482605 648.44967651 C768.99569826 678.24361316 768.99569826 678.24361316 765.47219849 688.89434814 C765.25135086 689.56593964 765.03050323 690.23753113 764.80296326 690.92947388 C761.21575737 701.60610754 756.31788333 712.64474 746.36282349 718.73419189 C737.4840306 723.04209705 728.38781876 724.44528242 718.59402466 724.4151001 C717.71611771 724.42021103 716.83821075 724.42532196 715.93370056 724.43058777 C713.06364916 724.4443606 710.19384128 724.44353616 707.32376099 724.44122314 C705.30653293 724.44511717 703.28930568 724.44945328 701.27207947 724.45420837 C697.05514868 724.46164442 692.83830166 724.46139859 688.62136841 724.45611572 C683.24871471 724.4503283 677.87640657 724.46724746 672.50380993 724.4904604 C668.34020523 724.50527707 664.1766822 724.50605863 660.0130558 724.50295067 C658.03374867 724.50346002 656.05443649 724.50862423 654.07515526 724.51876259 C624.43005376 724.65198378 624.43005376 724.65198378 613.14016724 714.49591064 C604.21837492 705.28319032 600.94339325 692.6508943 598.11282349 680.49591064 C597.77123606 679.07510012 597.42845567 677.65457597 597.08459473 676.23431396 C596.16063005 672.40320306 595.25346469 668.56829491 594.34939194 664.73244858 C593.38315526 660.64640606 592.40089598 656.56421439 591.42068481 652.48150635 C589.34056248 643.80466785 587.27972809 635.12332983 585.2237854 626.44073486 C583.98082812 621.19155985 582.73429963 615.94323767 581.48684692 610.69512939 C581.07538029 608.96386286 580.66391687 607.23259557 580.25245667 605.50132751 C580.04936827 604.64682196 579.84627987 603.7923164 579.63703728 602.91191673 C577.19678333 592.64324583 574.75808989 582.37420684 572.32657337 572.10346317 C567.82665374 553.09612801 563.28129745 534.1024646 558.59329224 515.14044189 C553.07568657 492.81489551 547.73044177 470.45011123 542.40579224 448.07794189 C534.16031256 413.43663595 525.83492804 378.81517893 517.46829224 344.20294189 C507.17296092 301.6095739 496.92586082 259.00491153 486.71829224 216.39044189 C486.55607052 215.71321909 486.3938488 215.03599629 486.22671127 214.33825159 C482.13884717 197.27272781 478.05260633 180.20681567 473.96829224 163.14044189 C471.0580773 173.4480333 468.2404883 183.75336824 465.79641724 194.18341064 C465.5170784 195.36198135 465.23773956 196.54055206 464.94993591 197.75483704 C464.19431855 200.94490034 463.44164824 204.13564138 462.69014359 207.32667542 C461.87932959 210.76558656 461.0642579 214.20348785 460.2492981 217.64141846 C460.08226726 218.34610197 459.91523642 219.05078548 459.74314404 219.77682304 C459.40127879 221.21911114 459.05940268 222.66139666 458.71751595 224.10367966 C458.1951834 226.3078828 457.67329436 228.51219055 457.15150452 230.71652222 C453.48447641 246.2044577 449.77621282 261.68246187 446.06547928 277.15997314 C444.4436762 283.92539067 442.82326535 290.6911419 441.20266724 297.45684814 C440.9354848 298.57220884 440.9354848 298.57220884 440.66290474 299.71010208 C436.86119576 315.58088476 433.06985093 331.45413504 429.28079224 347.32794189 C427.95797562 352.86963245 426.63508854 358.41130617 425.31204224 363.95294189 C425.14229637 364.66392973 424.97255051 365.37491756 424.79766083 366.10745049 C421.80540529 378.63998681 418.80932719 391.17160754 415.81204224 403.70294189 C415.58874426 404.63653345 415.36544628 405.57012501 415.1353817 406.53200722 C413.98542207 411.33985633 412.83542908 416.14769746 411.6854248 420.95553589 C404.58640529 450.63461022 397.49201104 480.31477564 390.41081047 509.99810696 C388.90360431 516.31605618 387.39602824 522.63391704 385.88821411 528.95172119 C385.67468355 529.84643788 385.46115299 530.74115458 385.24115181 531.66298389 C384.37478874 535.29313577 383.50842285 538.92328698 382.64202499 542.55343056 C379.87147219 554.16199904 377.10260107 565.77096684 374.33542442 577.38034058 C372.36787154 585.63441483 370.39863635 593.88808681 368.42835426 602.14151001 C367.25857679 607.04192857 366.08948646 611.94250816 364.9223938 616.84356689 C362.58377475 626.66241618 360.2337808 636.47832041 357.85845375 646.2883606 C356.56185306 651.65157846 355.28957253 657.01998368 354.03196049 662.39247131 C353.18086205 666.01119473 352.31322569 669.62582827 351.44209862 673.23977661 C351.03930894 674.92572648 350.64315533 676.61327999 350.25466347 678.30258179 C347.15062719 691.77488492 342.72055843 709.38761219 330.64407349 717.74981689 C329.86419067 718.12622314 329.08430786 718.50262939 328.28079224 718.89044189 C327.51380005 719.27716064 326.74680786 719.66387939 325.95657349 720.06231689 C318.53769542 722.73893172 311.06111378 723.43940953 303.22683716 723.43096924 C301.85145531 723.44104507 301.85145531 723.44104507 300.44828796 723.45132446 C297.44838893 723.47016036 294.44871529 723.4742212 291.44876099 723.47637939 C289.34185193 723.48281684 287.23494374 723.48954589 285.1280365 723.49655151 C280.72279795 723.50848794 276.3176376 723.51223604 271.91238403 723.51104736 C266.29751904 723.51084428 260.68316072 723.53815275 255.06841564 723.57259178 C250.71951542 723.59494489 246.37073559 723.59888235 242.02178383 723.59782791 C239.9531511 723.60017097 237.88451439 723.6089205 235.81593895 723.62449265 C206.85060152 723.82215562 206.85060152 723.82215562 195.96829224 713.14044189 C184.00590014 700.93999224 180.04877001 680.55529427 175.28079224 664.76544189 C174.54874585 662.36684685 173.81589604 659.96849689 173.08230591 657.57037354 C171.31555995 651.78586438 169.55811384 645.99861171 167.80594158 640.2096777 C166.35885632 635.42877687 164.90869941 630.64881794 163.45657349 625.8694458 C158.97736296 611.12560085 154.50871865 596.3785896 150.04901886 581.62883186 C146.3890551 569.52463793 142.71546052 557.42463891 139.03079224 545.32794189 C138.48668197 543.54124009 137.94257392 541.75453761 137.39846802 539.96783447 C136.24578738 536.18303899 135.0929151 532.39830194 133.93997192 528.61358643 C130.07155091 515.9141868 126.20582466 503.21396642 122.34012985 490.51373672 C121.88382986 489.01462739 121.4275234 487.51552003 120.97121048 486.01641464 C114.45408398 464.6059138 107.94558293 443.19281903 101.44763184 421.77648926 C95.6906908 402.80323712 89.92057989 383.8340162 84.14590073 364.86615753 C77.64155374 343.50156866 71.14102656 322.13584247 64.65579224 300.76544189 C64.15541443 299.11661514 64.15541443 299.11661514 63.64492798 297.43447876 C62.95818989 295.17155488 62.27145285 292.90863068 61.5847168 290.64570618 C61.23563263 289.49541428 60.88654846 288.34512238 60.52688599 287.15997314 C60.17224274 285.99135239 59.81759949 284.82273163 59.45220947 283.61869812 C54.37703013 266.89593124 49.29794449 250.17435056 44.21829224 233.45294189 C43.83516499 232.19174782 43.83516499 232.19174782 43.44429779 230.90507507 C36.70770426 208.72966104 29.96744634 186.55536588 23.21886349 164.38359737 C21.93293423 160.15868226 20.64750613 155.93361512 19.36251354 151.70841503 C18.29905004 148.2117274 17.23531237 144.71512322 16.17141724 141.21856689 C15.85620086 140.18258834 15.85620086 140.18258834 15.53461647 139.12568092 C12.58628768 129.4375895 9.6267876 119.75296224 6.66014099 110.07046509 C4.97681891 104.57617639 3.29660992 99.08093698 1.61707592 93.58548927 C0.47816919 89.85981998 -0.6624247 86.13468737 -1.80743408 82.41088867 C-21.0107574 19.94700614 -21.0107574 19.94700614 -14.30905151 6.94903564 C-10.84853015 2.04927604 -5.8116551 0.02433484 0 0 Z " fill="#FCFCFC" transform="translate(806.0317077636719,20.85955810546875)"/>
<path d="M0 0 C4.48910162 2.58404125 9.00320948 5.12390007 13.51367188 7.67041016 C14.95963745 8.48759521 14.95963745 8.48759521 16.43481445 9.32128906 C18.44796028 10.45883238 20.46139381 11.59586667 22.47509766 12.73242188 C24.55217982 13.90488913 26.62867229 15.07840165 28.70458984 16.25292969 C45.62091923 25.80846106 62.76395137 34.82321877 80.06471252 43.65681458 C85.11522121 46.23852846 90.13298592 48.87784992 95.13867188 51.54541016 C114.59042241 61.84955662 134.34652251 71.57979682 154.35180664 80.75952148 C161.14316094 83.87726751 167.88844499 87.07156117 174.60375977 90.34985352 C189.30466555 97.52178545 204.21862221 104.11885216 219.27301025 110.50512695 C221.74908385 111.55631813 224.2239793 112.61025026 226.69873047 113.66455078 C263.39459302 129.29093446 300.22856691 144.4788324 337.57617188 158.48291016 C338.90023041 158.98011566 338.90023041 158.98011566 340.2510376 159.48736572 C363.32300426 168.1485809 386.40339072 176.66010906 409.84814453 184.26416016 C413.89371839 185.58672104 417.92922467 186.93707491 421.96289062 188.29541016 C471.63638717 205.01364558 521.71923344 219.83510315 572.37652206 233.27426529 C574.526451 233.84471745 576.67614801 234.41603756 578.82583618 234.98739624 C607.86746949 242.69844896 637.01931048 249.871446 666.38867188 256.23291016 C668.09925278 256.60459824 668.09925278 256.60459824 669.84439087 256.98379517 C715.55640336 266.89993418 761.4121457 275.9351151 807.57617188 283.48291016 C808.61185303 283.65308655 809.64753418 283.82326294 810.71459961 283.99859619 C848.2114157 290.15139916 885.84524727 295.03764086 923.57617188 299.48291016 C925.17120544 299.67176788 925.17120544 299.67176788 926.79846191 299.86444092 C984.48927933 306.67692931 1042.54263128 311.03734466 1100.57617188 313.48291016 C1101.61589142 313.52790649 1102.65561096 313.57290283 1103.72683716 313.6192627 C1123.56728272 314.46699065 1143.40843937 314.84645774 1163.26367188 315.10791016 C1164.08360752 315.1188118 1164.90354317 315.12971344 1165.74832535 315.14094543 C1260.94244484 316.38933992 1355.92442611 311.83957399 1684.09893799 264.01428223 C1686.58809406 263.48035282 1689.07792068 262.94964506 1691.56787109 262.41943359 C1703.58889695 259.85439347 1715.58783479 257.19640106 1727.57617188 254.48291016 C1728.52927246 254.26761658 1729.48237305 254.052323 1730.46435547 253.83050537 C1819.32554073 233.72912133 1907.9162315 208.60131955 1993.57617188 177.48291016 C1994.63211548 177.09985718 1995.68805908 176.7168042 1996.77600098 176.32214355 C2035.16104136 162.38944755 2073.50759739 148.28434668 2111.12597656 132.37329102 C2128.46427928 125.07092173 2144.85826831 118.52628188 2163.56835938 125.10009766 C2173.93071262 129.86408863 2179.85429002 137.55448361 2183.95117188 147.98291016 C2185.83050762 158.50719031 2184.38098539 167.66048312 2178.38867188 176.60791016 C2170.16725248 187.51905318 2159.68111027 194.74324488 2148.57617188 202.48291016 C2147.85204102 202.98822266 2147.12791016 203.49353516 2146.38183594 204.01416016 C2138.91594484 209.21022689 2131.38920743 214.31403302 2123.80664062 219.33837891 C2121.36632807 220.95836874 2118.93221341 222.58624825 2116.50195312 224.22119141 C2057.91354654 263.58041631 1994.90036618 299.35867034 1930.12182617 327.58447266 C1926.21870824 329.28729634 1922.34960817 331.0508864 1918.4957428 332.86283875 C1909.61053853 337.04008631 1900.65049096 341.02444617 1891.63867188 344.92041016 C1890.85292786 345.26028961 1890.06718384 345.60016907 1889.25762939 345.9503479 C1802.69880198 383.31481115 1712.89991457 412.60984328 1611.57617188 438.48291016 C1610.77350891 438.68619934 1609.97084595 438.88948853 1609.14385986 439.09893799 C1527.15961346 459.84313844 1443.22112521 474.24396777 1325.57617188 486.48291016 C1324.60881104 486.57616577 1323.6414502 486.66942139 1322.64477539 486.76550293 C1311.82975738 487.80260697 1301.01319405 488.63315017 1290.17022705 489.31427002 C1287.40731157 489.4938878 1284.64589641 489.69014675 1281.88427734 489.88867188 C1245.73323786 492.44920056 1209.62149523 492.77856683 1173.39302826 492.79343033 C1169.76496261 492.79537595 1166.13691186 492.80048189 1162.5088501 492.80599976 C1130.81654892 492.84166366 1099.22364677 492.19518044 1067.57617188 490.48291016 C1066.85474251 490.44409855 1066.13331314 490.40528694 1065.39002228 490.36529922 C1056.8625841 489.90254111 1048.34367474 489.35066471 1039.82617188 488.73291016 C1038.67378021 488.65087341 1037.52138855 488.56883667 1036.33407593 488.48431396 C992.60347084 485.34570967 948.97568763 480.7042954 905.57617188 474.48291016 C904.61777405 474.34645081 903.65937622 474.20999146 902.67193604 474.06939697 C812.58719215 461.20495529 723.63206108 440.88445222 636.57617188 414.48291016 C635.74331665 414.23043518 634.91046143 413.97796021 634.05236816 413.71783447 C580.61144865 397.47829665 528.06814042 378.74209954 476.55957031 357.14892578 C473.27287644 355.77192373 469.98068999 354.40871193 466.68609619 353.05073547 C448.4169585 345.51910711 430.38314911 337.53602311 412.43945312 329.26025391 C408.92922417 327.64248865 405.40992158 326.04531098 401.88867188 324.45166016 C386.74620003 317.55981381 371.83877867 310.21880249 356.95117188 302.79541016 C355.97443512 302.30967529 354.99769836 301.82394043 353.99136353 301.32348633 C343.37083006 296.03540228 332.83539819 290.64999761 322.51266479 284.79780579 C318.03818622 282.26295687 313.51337209 279.92104721 308.88867188 277.67041016 C298.19246909 272.41127461 287.90957026 266.41426789 277.57617188 260.48291016 C276.53074219 259.88526855 275.4853125 259.28762695 274.40820312 258.671875 C253.48262051 246.70848238 232.71222086 234.49790445 212.38867188 221.53369141 C209.03222004 219.39568707 205.65575082 217.29438273 202.26367188 215.21337891 C185.62378716 204.97941872 169.47488364 194.07362493 153.34716797 183.05712891 C150.17437361 180.88988767 146.99588579 178.73120767 143.81445312 176.57666016 C134.01077904 169.92597541 124.37152413 163.07048252 114.796875 156.09472656 C112.5996419 154.49994502 110.39425461 152.91722141 108.18554688 151.33837891 C96.4686479 142.95267886 85.00201416 134.25983814 73.57617188 125.48291016 C72.33417917 124.53213481 71.09201436 123.5815842 69.84960938 122.63134766 C57.19608139 112.94255328 44.72665103 103.04157623 32.38476562 92.95947266 C30.78381708 91.65243475 29.18019211 90.3486766 27.57617188 89.04541016 C19.93186206 82.82329752 12.41998386 76.4498078 4.91015625 70.06689453 C3.25783637 68.6631022 1.60470012 67.26027888 -0.04882812 65.85791016 C-0.59079834 65.39771484 -1.13276855 64.93751953 -1.69116211 64.46337891 C-5.04159072 61.62665238 -8.43696416 58.85542326 -11.86132812 56.10791016 C-17.54380112 51.48882392 -22.85435791 46.50831968 -28.18945312 41.49853516 C-30.7001169 39.14460646 -33.25220683 36.85296801 -35.86132812 34.60791016 C-37.05090824 33.56861961 -38.23850833 32.52705703 -39.42382812 31.48291016 C-40.04902344 30.93634766 -40.67421875 30.38978516 -41.31835938 29.82666016 C-47.64967392 23.96186353 -50.58457841 18.10958016 -50.92382812 9.42041016 C-50.67718586 3.1668354 -49.41831675 -1.61895853 -44.84570312 -6.04443359 C-29.6614944 -17.84297416 -14.06142231 -8.10919261 0 0 Z " fill="#FF9900" transform="translate(72.423828125,972.51708984375)"/>
<path d="M0 0 C0.99386719 0.70382813 1.98773437 1.40765625 3.01171875 2.1328125 C11.0376557 7.98702534 18.58342321 14.3997909 26 21 C26.67804687 21.60328125 27.35609375 22.2065625 28.0546875 22.828125 C33.54819237 28.03249803 38.0588828 34.18079494 42.62109375 40.19433594 C43.87377139 41.83470489 45.15417056 43.45381099 46.4375 45.0703125 C81.45800326 91.03472303 91.2306681 153.39058733 92.55859375 209.64868164 C92.57965117 210.51536032 92.60070858 211.382039 92.6224041 212.27498066 C93.19816887 236.70266301 93.11327538 261.13456847 93.07177705 285.56737387 C93.06044894 292.42364715 93.05610289 299.27992059 93.05223143 306.13620151 C93.04524667 318.35569792 93.03450325 330.57518742 93.02050781 342.79467773 C93.01968 343.51862124 93.01885219 344.24256475 93.01799929 344.98844595 C93.01293634 349.3985566 93.00778297 353.80866714 93.00260353 358.21877766 C92.99475284 364.90911658 92.98701948 371.59945563 92.97949219 378.28979492 C92.97866406 379.02464135 92.97783593 379.75948777 92.97698271 380.51660227 C92.96331807 392.75142225 92.95355424 404.98624238 92.94658184 417.22106797 C92.9421082 424.73456178 92.93408432 432.24803586 92.92143703 439.76152045 C92.91205069 445.48216387 92.90767407 451.20280221 92.9051857 456.92345238 C92.90330594 459.27214512 92.89968977 461.62083718 92.89425278 463.96952438 C92.8870923 467.16117189 92.88599648 470.35276423 92.88647461 473.54441833 C92.88287965 474.48336282 92.87928469 475.4223073 92.87558079 476.38970464 C92.87695514 477.23925098 92.87832949 478.08879732 92.87974548 478.96408749 C92.87882369 479.70054373 92.8779019 480.43699997 92.87695217 481.19577307 C92.89056613 483.10223127 92.89056613 483.10223127 94 485 C94.17749935 487.07861567 94.29900708 489.16210137 94.39453125 491.24609375 C94.4605957 492.54514648 94.52666016 493.84419922 94.59472656 495.18261719 C94.62957153 495.8759314 94.6644165 496.56924561 94.70031738 497.28356934 C96.89330101 539.38933228 108.35745354 575.1661994 127.66015625 612.3984375 C137.25115185 630.99891812 137.25115185 630.99891812 134.3515625 641.3046875 C129.64478812 652.9308225 119.46076869 660.6081471 109.25 667.25 C107.6689512 668.28987877 106.08824523 669.3302789 104.5078125 670.37109375 C103.6405957 670.94069824 102.77337891 671.51030273 101.87988281 672.09716797 C98.65639755 674.22702929 95.44822637 676.37918529 92.2421875 678.53515625 C90.45844037 679.7325201 88.67449431 680.92958703 86.89050293 682.12658691 C85.73230807 682.90456265 84.57481241 683.68358054 83.41809082 684.46374512 C56.02393673 702.92949333 56.02393673 702.92949333 39 701 C8.95378162 691.19397519 -10.92882822 648.58893541 -24.2734375 622.703125 C-25.2905868 620.70000769 -26.30376233 618.69486643 -27.3125 616.6875 C-27.78679443 615.74447021 -28.26108887 614.80144043 -28.74975586 613.82983398 C-32 607.25798549 -32 607.25798549 -32 605 C-32.68578125 605.68707031 -33.3715625 606.37414062 -34.078125 607.08203125 C-36.14423844 609.14887322 -38.21866556 611.20704304 -40.296875 613.26171875 C-41.44794781 614.40361444 -42.59898906 615.54554195 -43.75 616.6875 C-44.33910156 617.26822266 -44.92820312 617.84894531 -45.53515625 618.44726562 C-48.64906764 621.43155316 -48.64906764 621.43155316 -51 625 C-51.66 625 -52.32 625 -53 625 C-53.25394531 625.59167969 -53.50789063 626.18335938 -53.76953125 626.79296875 C-55.13553212 629.2430973 -56.52936211 630.5359582 -58.6875 632.3125 C-61.38441227 634.58817104 -63.92992364 636.89369134 -66.375 639.4375 C-70.5907383 643.71020774 -75.26619388 647.32260824 -80 651 C-81.39992188 652.12535156 -81.39992188 652.12535156 -82.828125 653.2734375 C-125.70562119 687.24560756 -176.16066618 706.3705936 -230 714 C-230.88800293 714.13277344 -231.77600586 714.26554688 -232.69091797 714.40234375 C-269.47191954 719.73270669 -309.06871851 716.76553482 -345 708 C-345.75748535 707.81743652 -346.5149707 707.63487305 -347.29541016 707.44677734 C-380.23757018 699.26975252 -412.49362429 681.63168093 -436 657 C-436.78375 656.21625 -437.5675 655.4325 -438.375 654.625 C-439.24125 653.75875 -440.1075 652.8925 -441 652 C-441.91652344 651.17048828 -441.91652344 651.17048828 -442.8515625 650.32421875 C-455.18095859 638.77942059 -464.32537381 623.93311383 -472 609 C-472.33837891 608.35305176 -472.67675781 607.70610352 -473.02539062 607.03955078 C-501.12962812 552.75215894 -503.26991609 483.72808983 -485.30200195 425.99291992 C-468.39457167 373.78554514 -431.68327764 333.7068419 -385 306 C-384.3694873 305.62536621 -383.73897461 305.25073242 -383.08935547 304.86474609 C-335.31306037 276.94829837 -277.47491883 268.7795314 -223 268.75 C-221.31460114 268.74898788 -221.31460114 268.74898788 -219.59515381 268.74795532 C-170.51169784 268.79444986 -122.21420447 275.7449193 -74.1875 285.5625 C-73.49065094 285.70443787 -72.79380188 285.84637573 -72.07583618 285.99261475 C-71.39701385 286.13153137 -70.71819153 286.270448 -70.01879883 286.41357422 C-69.43109207 286.53376923 -68.84338531 286.65396423 -68.23786926 286.77780151 C-61.95794802 288.10228967 -55.72275972 289.5351014 -49.5012207 291.10913086 C-48.77410133 291.29203423 -48.04698196 291.47493759 -47.29782867 291.66338348 C-45.53161085 292.10783118 -43.76576509 292.55375702 -42 293 C-42.08563423 283.81778131 -42.18094711 274.63572249 -42.28752708 265.45372295 C-42.33677363 261.18687142 -42.38308729 256.92003661 -42.421875 252.65307617 C-42.58022392 177.21126675 -42.58022392 177.21126675 -75 111 C-75.65355469 110.19175781 -76.30710937 109.38351563 -76.98046875 108.55078125 C-82.77843525 101.65447502 -89.44642599 96.78244035 -97 92 C-97.93457031 91.38253906 -98.86914062 90.76507813 -99.83203125 90.12890625 C-108.63653126 84.59992652 -118.19090909 81.27684541 -128 78 C-129.16273438 77.608125 -130.32546875 77.21625 -131.5234375 76.8125 C-138.59861277 74.6197096 -145.78246704 73.18718393 -153.0625 71.875 C-153.92907227 71.71620361 -154.79564453 71.55740723 -155.68847656 71.39379883 C-174.03867679 68.26465184 -192.42189985 67.6228029 -211 67.6875 C-212.11862427 67.68965515 -213.23724854 67.6918103 -214.38977051 67.69403076 C-276.95379797 67.88698503 -337.96728316 84.67174615 -395.55078125 108.390625 C-425.46163911 120.65948946 -425.46163911 120.65948946 -437.8125 116.8125 C-442.81468584 113.96811981 -445.27694028 110.43426527 -447 105 C-447.75933452 101.06164327 -448.132539 97.31645102 -448.16113281 93.30859375 C-448.17074036 92.21305176 -448.1803479 91.11750977 -448.19024658 89.98876953 C-448.1966214 88.23089111 -448.1966214 88.23089111 -448.203125 86.4375 C-448.20882507 85.21401855 -448.21452515 83.99053711 -448.22039795 82.72998047 C-448.2298322 80.14112203 -448.23637567 77.55225166 -448.24023438 74.96337891 C-448.24989707 71.04177293 -448.28091892 67.12070091 -448.3125 63.19921875 C-448.31903516 60.67448225 -448.32428361 58.14974203 -448.328125 55.625 C-448.3404718 54.4692749 -448.3528186 53.3135498 -448.36553955 52.12280273 C-448.33433703 40.47023247 -447.34705725 27.82925777 -439 19 C-426.31279632 7.50096302 -409.72286309 0.34570011 -394 -6 C-393.01080566 -6.39944824 -392.02161133 -6.79889648 -391.00244141 -7.21044922 C-338.29437464 -28.27337055 -282.61061862 -40.99682624 -226 -45 C-225.00436035 -45.07057617 -224.0087207 -45.14115234 -222.98291016 -45.21386719 C-149.45426863 -50.10284282 -61.73289806 -44.17583531 0 0 Z M-323 408 C-333.35625052 419.16553017 -340.88843571 431.93229201 -345.8125 446.3125 C-346.22967285 447.51918335 -346.22967285 447.51918335 -346.65527344 448.75024414 C-351.0775325 462.47352128 -352.50461064 476.1890975 -352.39111328 490.52905273 C-352.37502771 492.93335856 -352.3910768 495.33597869 -352.41015625 497.74023438 C-352.43994425 519.31347504 -348.00758065 539.78544515 -338 559 C-337.54625 559.886875 -337.0925 560.77375 -336.625 561.6875 C-324.47294225 582.95360106 -302.13631512 597.20588462 -279.0625 603.75 C-271.43613431 605.79683455 -263.87318137 607.26915616 -256 608 C-255.30841797 608.06703125 -254.61683594 608.1340625 -253.90429688 608.203125 C-201.13043846 613.00494589 -140.90261878 598.04525352 -99.5625 564.19140625 C-95.08183745 560.35962014 -90.72900628 556.40400243 -86.44189453 552.35839844 C-85.10346804 551.09747649 -83.75336935 549.84897561 -82.40234375 548.6015625 C-75.25344491 541.78121844 -69.56566401 534.1212314 -64 526 C-63.4121875 525.14664063 -62.824375 524.29328125 -62.21875 523.4140625 C-45.83344486 497.87739013 -41.70208214 464.26867497 -40.4375 434.625 C-40.3950415 433.63564453 -40.35258301 432.64628906 -40.30883789 431.62695312 C-39.72791069 416.09504029 -39.91565733 400.5398128 -40 385 C-120.51831064 366.48376112 -240.8689169 341.93048537 -323 408 Z " fill="#FCFCFC" transform="translate(619,47)"/>
<path d="M0 0 C1.23334579 -0.00715027 2.46669159 -0.01430054 3.7374115 -0.02166748 C7.70256544 -0.03943076 11.66762675 -0.046875 15.6328125 -0.046875 C16.648612 -0.046875 16.648612 -0.046875 17.68493271 -0.046875 C56.09306703 -0.02869125 56.09306703 -0.02869125 74.63305664 2.87371826 C77.0642467 3.25063234 79.49778588 3.60993973 81.93164062 3.96923828 C128.45058377 10.90408116 181.61520342 19.87545029 219.7578125 49.203125 C220.7478125 49.863125 221.7378125 50.523125 222.7578125 51.203125 C222.7578125 51.863125 222.7578125 52.523125 222.7578125 53.203125 C223.7478125 53.533125 224.7378125 53.863125 225.7578125 54.203125 C227.4765625 56.2421875 227.4765625 56.2421875 229.2578125 58.828125 C229.845625 59.66601562 230.4334375 60.50390625 231.0390625 61.3671875 C234.51699122 67.10576988 236.25302389 72.31573523 236.9296875 78.9765625 C237.00926697 79.70878021 237.08884644 80.44099792 237.1708374 81.19540405 C237.94328209 88.94706411 238.06056351 96.68516781 238.01855469 104.46972656 C238.00778463 106.83424301 238.01855866 109.19800549 238.03125 111.5625 C238.06034362 139.06829 238.06034362 139.06829 231.44921875 147.52734375 C227.55873791 151.38188481 223.42924155 152.3492357 218.1328125 152.640625 C206.75824621 152.13456508 195.96333152 146.77479643 185.61907959 142.37475586 C111.46456315 110.93482329 15.294251 95.99283924 -61.72900391 126.02026367 C-70.79578838 129.70279807 -78.57318223 134.10778702 -86.2421875 140.203125 C-87.57830078 141.24919922 -87.57830078 141.24919922 -88.94140625 142.31640625 C-103.24481762 154.29797749 -112.49647544 172.60990611 -114.2421875 191.203125 C-115.75828372 215.53051177 -112.67763356 238.05535004 -96.203125 257.0546875 C-95.55601562 257.76367188 -94.90890625 258.47265625 -94.2421875 259.203125 C-93.42621094 260.17378906 -93.42621094 260.17378906 -92.59375 261.1640625 C-55.64696863 302.12316402 19.31475258 314.35022857 69.4543457 329.78393555 C84.60337956 334.44792399 99.70222374 339.24494971 114.7578125 344.203125 C115.89589355 344.57356934 117.03397461 344.94401367 118.20654297 345.32568359 C139.06211084 352.13940332 158.54774878 360.91484943 178.0703125 370.890625 C179.07779541 371.40077148 180.08527832 371.91091797 181.12329102 372.43652344 C188.16332159 376.10204713 194.43453244 380.42071994 200.7578125 385.203125 C201.79035156 385.93402344 202.82289063 386.66492188 203.88671875 387.41796875 C209.41638528 391.33222708 214.50683384 395.51157962 219.46875 400.125 C221.78290383 402.28327097 221.78290383 402.28327097 224.546875 404.34375 C225.64128906 405.26414062 225.64128906 405.26414062 226.7578125 406.203125 C226.7578125 406.863125 226.7578125 407.523125 226.7578125 408.203125 C227.7478125 408.533125 228.7378125 408.863125 229.7578125 409.203125 C232.99539275 412.66824603 235.83598685 416.47045778 238.7578125 420.203125 C239.47324219 421.08097656 240.18867188 421.95882813 240.92578125 422.86328125 C272.36991554 462.6696079 282.33343233 514.89659938 276.98828125 564.52954102 C271.97440615 603.12191621 257.63940153 639.12869696 232.7578125 669.203125 C232.28730469 669.77514648 231.81679687 670.34716797 231.33203125 670.93652344 C221.46337524 682.86874406 210.97518163 693.62644578 198.7578125 703.203125 C197.78457031 703.99332031 196.81132812 704.78351562 195.80859375 705.59765625 C123.19308765 763.4531724 18.01352513 773.82928383 -71.11627197 763.75495911 C-117.91147201 758.21886595 -167.09168024 748.67510071 -210.2421875 729.203125 C-211.05268555 728.84508789 -211.86318359 728.48705078 -212.69824219 728.11816406 C-230.2041821 720.34598512 -249.7574368 711.02241455 -257.2421875 692.203125 C-260.76246578 679.68060837 -260.67572139 667.03821602 -260.57836914 654.12817383 C-260.55455858 650.74731953 -260.55785788 647.36724636 -260.56445312 643.98632812 C-260.55888121 641.80989118 -260.55177441 639.63345751 -260.54296875 637.45703125 C-260.54388016 636.45998672 -260.54479156 635.4629422 -260.54573059 634.4356842 C-260.45907938 625.81134866 -259.85700253 618.10132632 -254.2421875 611.203125 C-249.4766372 607.00490212 -246.89210907 606.00030155 -240.5546875 605.828125 C-239.35457031 605.77914062 -238.15445312 605.73015625 -236.91796875 605.6796875 C-225.447036 606.33151986 -213.75507947 612.53515282 -203.29589844 616.99240112 C-158.23502584 636.11844899 -111.78081858 646.95231962 -63.2421875 652.203125 C-62.37585693 652.30262451 -61.50952637 652.40212402 -60.61694336 652.50463867 C-7.44109161 658.07385446 62.66325571 657.98185914 106.55224609 622.76318359 C110.47269376 619.42139185 114.13651772 615.86482474 117.7578125 612.203125 C118.44488281 611.52636719 119.13195313 610.84960938 119.83984375 610.15234375 C135.1039599 594.06127774 141.30380479 570.95530261 141.11132812 549.28417969 C140.4804136 527.12105362 132.583667 507.85087503 116.7578125 492.203125 C82.01061089 460.01567022 28.70474985 449.56870808 -15.2421875 436.203125 C-17.12667575 435.62906427 -19.01111982 435.05485847 -20.89550781 434.48046875 C-21.74286499 434.22218796 -22.59022217 433.96390717 -23.46325684 433.69779968 C-24.26944458 433.45205704 -25.07563232 433.20631439 -25.90625 432.953125 C-27.45800532 432.48021643 -29.00976304 432.00731575 -30.56152344 431.53442383 C-31.29060913 431.31219147 -32.01969482 431.08995911 -32.77087402 430.86099243 C-34.20415423 430.42422085 -35.6375033 429.98767517 -37.07092285 429.55136108 C-52.18732634 424.94834931 -67.23505417 420.15085913 -82.2421875 415.203125 C-83.28648926 414.86216797 -84.33079102 414.52121094 -85.40673828 414.16992188 C-144.10390945 394.91992866 -199.68397113 361.41629516 -229.2421875 305.203125 C-253.1076896 257.69361038 -259.39021183 203.36737113 -243.2421875 152.203125 C-224.10357589 96.36542148 -179.4905856 54.69732832 -127.62719727 28.83007812 C-88.67211144 9.92787312 -43.25098536 0.16514414 0 0 Z " fill="#FCFCFC" transform="translate(2093.2421875,-0.203125)"/>
<path d="M0 0 C1.24361298 0.00060425 2.48722595 0.0012085 3.76852417 0.00183105 C21.445949 0.02516402 38.97910245 0.19394785 56.5625 2.1875 C57.79532715 2.32172363 59.0281543 2.45594727 60.29833984 2.59423828 C77.58524193 4.51737153 94.62753939 7.18191555 111.5625 11.1875 C112.28808105 11.35749512 113.01366211 11.52749023 113.76123047 11.70263672 C154.62846369 21.45178293 154.62846369 21.45178293 164.76171875 37.03125 C171.68806235 50.42046439 171.06523235 67.42330455 170.9375 82.0625 C170.93101944 83.4751413 170.93101944 83.4751413 170.92440796 84.9163208 C170.84077891 100.52014938 169.98098231 115.75168411 167.5625 131.1875 C167.39089355 132.32155273 167.21928711 133.45560547 167.04248047 134.62402344 C158.18896772 192.23910817 140.80814032 248.64927556 115.5625 301.1875 C115.03285645 302.29593262 114.50321289 303.40436523 113.95751953 304.54638672 C103.13452256 327.07402041 90.86301166 348.67771337 76.5625 369.1875 C76.16256836 369.76467773 75.76263672 370.34185547 75.35058594 370.93652344 C63.98269875 387.29079978 51.69961032 403.52359847 37.35546875 417.39453125 C35.48186346 419.26813654 33.77542833 421.2291295 32.0625 423.25 C29.12660808 426.66631059 25.95596395 429.57234978 22.51953125 432.4765625 C20.64975831 434.11121429 18.95762638 435.82363756 17.25 437.625 C9.34702783 445.59981737 -0.58564849 453.13997276 -12.1875 453.625 C-17.15807392 453.37032395 -20.85828009 451.93008748 -24.25 448.1875 C-27.12417796 443.34677922 -27.1105317 438.6397366 -26.4375 433.1875 C-23.43045991 422.10623737 -18.58175936 411.48708293 -14.30007935 400.85717773 C39.44061841 276.27894355 39.44061841 276.27894355 50.53125 129.37890625 C45.5624912 118.08169453 35.62991897 112.61501251 24.5625 108.1875 C-48.09845649 81.44697498 -143.7635265 98.85515861 -218.625 106.8125 C-219.34376942 106.88884548 -220.06253883 106.96519096 -220.80308914 107.04384995 C-225.63364429 107.55766455 -230.46347135 108.07789751 -235.29296875 108.6015625 C-236.50046783 108.73167221 -237.70796692 108.86178192 -238.95205688 108.99583435 C-246.32899068 109.80435357 -253.67703644 110.73970663 -261.02485657 111.77523804 C-269.32296798 112.77768549 -276.93120881 113.20872742 -284.4375 109.1875 C-287.71181314 105.40944638 -289.3411499 102.197705 -289.4375 97.1875 C-287.94488384 86.02195574 -280.33787894 79.25201521 -271.8125 72.625 C-264.95311544 67.68450656 -257.75493822 63.40234442 -250.4375 59.1875 C-249.80328125 58.81625 -249.1690625 58.445 -248.515625 58.0625 C-188.10273174 22.69885516 -115.83222152 5.83894774 -46.4375 1.1875 C-45.14739014 1.09992432 -43.85728027 1.01234863 -42.52807617 0.92211914 C-28.35853219 0.03384407 -14.19319029 -0.01274255 0 0 Z " fill="#FF9900" transform="translate(2301.4375,912.8125)"/>
</svg>
